# xmcd
#
# Track frame offsets:
#	150
#	15337
#	29302
#	41492
#	59792
#	74392
#	91277
#	105455
#	119860
#	136022
#	150332
#	166975
#	184925
#	196537
#	209307
#	227717
#
# Disc length: 3190
#
# Revision: 3
# Processed by: cddbd v1.5.1PL0 Copyright (c) Steve Scherf et al.
# Submitted via: CDValet v3.31 - Copyright (c) 1997 Greg Leichner
# Normalized: r1:DSETVAR1,TDELIM( - ),TSWAP
#
DISCID=d00c7410
DTITLE=Various Artist - *Country's Greatest CD1*
DYEAR=1900
DGENRE=
TTITLE0=George Strait - The Cowboy Rides Again
TTITLE1=Patty Loveless - I'm That Kind Of Girl
TTITLE2=Reba McEntire - How Blue
TTITLE3=Oak Ridge Boys - Make My Life With You
TTITLE4=Razzy Bailey - Knock On Wood
TTITLE5=Ray Stevens - Mississippi Squirrel Revival
TTITLE6=Steve Wariner - What I Didn't Do
TTITLE7=John Schneider - Country Girls
TTITLE8=Atlanta - Sweet Country Music
TTITLE9=Lee Greenwood - God Bless The USA
TTITLE10=Waylon Jennings - Rose In Paradise
TTITLE11=Nanci Griffith - Lone Star State Of Mind
TTITLE12=Steve Earl - Guitar Town
TTITLE13=Patty Loveless - I Did
TTITLE14=Steve Wariner - Some Fools Never Learn
TTITLE15=Barbara Mandrell - Happy Birthday Dear Heartache
EXTD=
EXTT0=
EXTT1=
EXTT2=
EXTT3=
EXTT4=
EXTT5=
EXTT6=
EXTT7=
EXTT8=
EXTT9=
EXTT10=
EXTT11=
EXTT12=
EXTT13=
EXTT14=
EXTT15=
PLAYORDER=
